<svg width="100%" viewBox="0 0 680 100" xmlns="http://www.w3.org/2000/svg" preserveAspectRatio="xMidYMid meet">
  <!--
    Building chain — 24s loop, 20 link pairs.
    Each link's slot starts at i * 0.0417.
    Within the slot:
      +0.0083  white link appears
      +0.0167  purple sliver appears (open at 45°)
      +0.0250  sliver snaps closed (45° → 0°) + CLICK: rings + sparks + flash
      +0.0292  click effects fade out
    Sliver and click coordinates per link i:
      sliver pivot: (17.54 + 14i, 13.54)
      click center: (19 + 14i, 12)
  -->
  <g transform="translate(20 25) scale(2)" fill="none" stroke="white" stroke-width="2" stroke-linecap="round" stroke-linejoin="round">

    <!-- ============ LAYER 1: WHITE CHAIN LINK PAIRS ============ -->
    <g opacity="0"><path d="M10 13a5 5 0 0 0 7.54.54l3-3a5 5 0 0 0-7.07-7.07l-1.72 1.71"/><path d="M14 11a5 5 0 0 0-7.54-.54l-3 3a5 5 0 0 0 7.07 7.07l1.71-1.71"/><animate attributeName="opacity" values="0;1;1;0" keyTimes="0;0.0083;0.958;1" dur="24s" repeatCount="indefinite"/></g>
    <g opacity="0"><path d="M24 13a5 5 0 0 0 7.54.54l3-3a5 5 0 0 0-7.07-7.07l-1.72 1.71"/><path d="M28 11a5 5 0 0 0-7.54-.54l-3 3a5 5 0 0 0 7.07 7.07l1.71-1.71"/><animate attributeName="opacity" values="0;0;1;1;0" keyTimes="0;0.0417;0.05;0.958;1" dur="24s" repeatCount="indefinite"/></g>
    <g opacity="0"><path d="M38 13a5 5 0 0 0 7.54.54l3-3a5 5 0 0 0-7.07-7.07l-1.72 1.71"/><path d="M42 11a5 5 0 0 0-7.54-.54l-3 3a5 5 0 0 0 7.07 7.07l1.71-1.71"/><animate attributeName="opacity" values="0;0;1;1;0" keyTimes="0;0.0833;0.0917;0.958;1" dur="24s" repeatCount="indefinite"/></g>
    <g opacity="0"><path d="M52 13a5 5 0 0 0 7.54.54l3-3a5 5 0 0 0-7.07-7.07l-1.72 1.71"/><path d="M56 11a5 5 0 0 0-7.54-.54l-3 3a5 5 0 0 0 7.07 7.07l1.71-1.71"/><animate attributeName="opacity" values="0;0;1;1;0" keyTimes="0;0.125;0.1333;0.958;1" dur="24s" repeatCount="indefinite"/></g>
    <g opacity="0"><path d="M66 13a5 5 0 0 0 7.54.54l3-3a5 5 0 0 0-7.07-7.07l-1.72 1.71"/><path d="M70 11a5 5 0 0 0-7.54-.54l-3 3a5 5 0 0 0 7.07 7.07l1.71-1.71"/><animate attributeName="opacity" values="0;0;1;1;0" keyTimes="0;0.1667;0.175;0.958;1" dur="24s" repeatCount="indefinite"/></g>
    <g opacity="0"><path d="M80 13a5 5 0 0 0 7.54.54l3-3a5 5 0 0 0-7.07-7.07l-1.72 1.71"/><path d="M84 11a5 5 0 0 0-7.54-.54l-3 3a5 5 0 0 0 7.07 7.07l1.71-1.71"/><animate attributeName="opacity" values="0;0;1;1;0" keyTimes="0;0.2083;0.2167;0.958;1" dur="24s" repeatCount="indefinite"/></g>
    <g opacity="0"><path d="M94 13a5 5 0 0 0 7.54.54l3-3a5 5 0 0 0-7.07-7.07l-1.72 1.71"/><path d="M98 11a5 5 0 0 0-7.54-.54l-3 3a5 5 0 0 0 7.07 7.07l1.71-1.71"/><animate attributeName="opacity" values="0;0;1;1;0" keyTimes="0;0.25;0.2583;0.958;1" dur="24s" repeatCount="indefinite"/></g>
    <g opacity="0"><path d="M108 13a5 5 0 0 0 7.54.54l3-3a5 5 0 0 0-7.07-7.07l-1.72 1.71"/><path d="M112 11a5 5 0 0 0-7.54-.54l-3 3a5 5 0 0 0 7.07 7.07l1.71-1.71"/><animate attributeName="opacity" values="0;0;1;1;0" keyTimes="0;0.2917;0.3;0.958;1" dur="24s" repeatCount="indefinite"/></g>
    <g opacity="0"><path d="M122 13a5 5 0 0 0 7.54.54l3-3a5 5 0 0 0-7.07-7.07l-1.72 1.71"/><path d="M126 11a5 5 0 0 0-7.54-.54l-3 3a5 5 0 0 0 7.07 7.07l1.71-1.71"/><animate attributeName="opacity" values="0;0;1;1;0" keyTimes="0;0.3333;0.3417;0.958;1" dur="24s" repeatCount="indefinite"/></g>
    <g opacity="0"><path d="M136 13a5 5 0 0 0 7.54.54l3-3a5 5 0 0 0-7.07-7.07l-1.72 1.71"/><path d="M140 11a5 5 0 0 0-7.54-.54l-3 3a5 5 0 0 0 7.07 7.07l1.71-1.71"/><animate attributeName="opacity" values="0;0;1;1;0" keyTimes="0;0.375;0.3833;0.958;1" dur="24s" repeatCount="indefinite"/></g>
    <g opacity="0"><path d="M150 13a5 5 0 0 0 7.54.54l3-3a5 5 0 0 0-7.07-7.07l-1.72 1.71"/><path d="M154 11a5 5 0 0 0-7.54-.54l-3 3a5 5 0 0 0 7.07 7.07l1.71-1.71"/><animate attributeName="opacity" values="0;0;1;1;0" keyTimes="0;0.4167;0.425;0.958;1" dur="24s" repeatCount="indefinite"/></g>
    <g opacity="0"><path d="M164 13a5 5 0 0 0 7.54.54l3-3a5 5 0 0 0-7.07-7.07l-1.72 1.71"/><path d="M168 11a5 5 0 0 0-7.54-.54l-3 3a5 5 0 0 0 7.07 7.07l1.71-1.71"/><animate attributeName="opacity" values="0;0;1;1;0" keyTimes="0;0.4583;0.4667;0.958;1" dur="24s" repeatCount="indefinite"/></g>
    <g opacity="0"><path d="M178 13a5 5 0 0 0 7.54.54l3-3a5 5 0 0 0-7.07-7.07l-1.72 1.71"/><path d="M182 11a5 5 0 0 0-7.54-.54l-3 3a5 5 0 0 0 7.07 7.07l1.71-1.71"/><animate attributeName="opacity" values="0;0;1;1;0" keyTimes="0;0.5;0.5083;0.958;1" dur="24s" repeatCount="indefinite"/></g>
    <g opacity="0"><path d="M192 13a5 5 0 0 0 7.54.54l3-3a5 5 0 0 0-7.07-7.07l-1.72 1.71"/><path d="M196 11a5 5 0 0 0-7.54-.54l-3 3a5 5 0 0 0 7.07 7.07l1.71-1.71"/><animate attributeName="opacity" values="0;0;1;1;0" keyTimes="0;0.5417;0.55;0.958;1" dur="24s" repeatCount="indefinite"/></g>
    <g opacity="0"><path d="M206 13a5 5 0 0 0 7.54.54l3-3a5 5 0 0 0-7.07-7.07l-1.72 1.71"/><path d="M210 11a5 5 0 0 0-7.54-.54l-3 3a5 5 0 0 0 7.07 7.07l1.71-1.71"/><animate attributeName="opacity" values="0;0;1;1;0" keyTimes="0;0.5833;0.5917;0.958;1" dur="24s" repeatCount="indefinite"/></g>
    <g opacity="0"><path d="M220 13a5 5 0 0 0 7.54.54l3-3a5 5 0 0 0-7.07-7.07l-1.72 1.71"/><path d="M224 11a5 5 0 0 0-7.54-.54l-3 3a5 5 0 0 0 7.07 7.07l1.71-1.71"/><animate attributeName="opacity" values="0;0;1;1;0" keyTimes="0;0.625;0.6333;0.958;1" dur="24s" repeatCount="indefinite"/></g>
    <g opacity="0"><path d="M234 13a5 5 0 0 0 7.54.54l3-3a5 5 0 0 0-7.07-7.07l-1.72 1.71"/><path d="M238 11a5 5 0 0 0-7.54-.54l-3 3a5 5 0 0 0 7.07 7.07l1.71-1.71"/><animate attributeName="opacity" values="0;0;1;1;0" keyTimes="0;0.6667;0.675;0.958;1" dur="24s" repeatCount="indefinite"/></g>
    <g opacity="0"><path d="M248 13a5 5 0 0 0 7.54.54l3-3a5 5 0 0 0-7.07-7.07l-1.72 1.71"/><path d="M252 11a5 5 0 0 0-7.54-.54l-3 3a5 5 0 0 0 7.07 7.07l1.71-1.71"/><animate attributeName="opacity" values="0;0;1;1;0" keyTimes="0;0.7083;0.7167;0.958;1" dur="24s" repeatCount="indefinite"/></g>
    <g opacity="0"><path d="M262 13a5 5 0 0 0 7.54.54l3-3a5 5 0 0 0-7.07-7.07l-1.72 1.71"/><path d="M266 11a5 5 0 0 0-7.54-.54l-3 3a5 5 0 0 0 7.07 7.07l1.71-1.71"/><animate attributeName="opacity" values="0;0;1;1;0" keyTimes="0;0.75;0.7583;0.958;1" dur="24s" repeatCount="indefinite"/></g>
    <g opacity="0"><path d="M276 13a5 5 0 0 0 7.54.54l3-3a5 5 0 0 0-7.07-7.07l-1.72 1.71"/><path d="M280 11a5 5 0 0 0-7.54-.54l-3 3a5 5 0 0 0 7.07 7.07l1.71-1.71"/><animate attributeName="opacity" values="0;0;1;1;0" keyTimes="0;0.7917;0.8;0.958;1" dur="24s" repeatCount="indefinite"/></g>

    <!-- ============ LAYER 2: PURPLE SLIVERS — appear @45°, snap to 0°, color flash ============ -->
    <g opacity="0"><path d="M17.54 13.54l3-3" stroke="black" stroke-width="3"/><path d="M17.54 13.54l3-3" stroke="#8b5cf6" stroke-width="2.5"><animateTransform attributeName="transform" type="rotate" values="45 17.54 13.54;45 17.54 13.54;0 17.54 13.54;0 17.54 13.54" keyTimes="0;0.0167;0.025;1" dur="24s" repeatCount="indefinite"/><animate attributeName="stroke" values="#8b5cf6;#8b5cf6;#e9d5ff;#8b5cf6" keyTimes="0;0.0245;0.025;0.0292" dur="24s" repeatCount="indefinite"/></path><animate attributeName="opacity" values="0;0;1;1;0" keyTimes="0;0.0083;0.0167;0.958;1" dur="24s" repeatCount="indefinite"/></g>
    <g opacity="0"><path d="M31.54 13.54l3-3" stroke="black" stroke-width="3"/><path d="M31.54 13.54l3-3" stroke="#8b5cf6" stroke-width="2.5"><animateTransform attributeName="transform" type="rotate" values="45 31.54 13.54;45 31.54 13.54;0 31.54 13.54;0 31.54 13.54" keyTimes="0;0.0583;0.0667;1" dur="24s" repeatCount="indefinite"/><animate attributeName="stroke" values="#8b5cf6;#8b5cf6;#e9d5ff;#8b5cf6" keyTimes="0;0.0662;0.0667;0.0708" dur="24s" repeatCount="indefinite"/></path><animate attributeName="opacity" values="0;0;1;1;0" keyTimes="0;0.05;0.0583;0.958;1" dur="24s" repeatCount="indefinite"/></g>
    <g opacity="0"><path d="M45.54 13.54l3-3" stroke="black" stroke-width="3"/><path d="M45.54 13.54l3-3" stroke="#8b5cf6" stroke-width="2.5"><animateTransform attributeName="transform" type="rotate" values="45 45.54 13.54;45 45.54 13.54;0 45.54 13.54;0 45.54 13.54" keyTimes="0;0.1;0.1083;1" dur="24s" repeatCount="indefinite"/><animate attributeName="stroke" values="#8b5cf6;#8b5cf6;#e9d5ff;#8b5cf6" keyTimes="0;0.1078;0.1083;0.1125" dur="24s" repeatCount="indefinite"/></path><animate attributeName="opacity" values="0;0;1;1;0" keyTimes="0;0.0917;0.1;0.958;1" dur="24s" repeatCount="indefinite"/></g>
    <g opacity="0"><path d="M59.54 13.54l3-3" stroke="black" stroke-width="3"/><path d="M59.54 13.54l3-3" stroke="#8b5cf6" stroke-width="2.5"><animateTransform attributeName="transform" type="rotate" values="45 59.54 13.54;45 59.54 13.54;0 59.54 13.54;0 59.54 13.54" keyTimes="0;0.1417;0.15;1" dur="24s" repeatCount="indefinite"/><animate attributeName="stroke" values="#8b5cf6;#8b5cf6;#e9d5ff;#8b5cf6" keyTimes="0;0.1495;0.15;0.1542" dur="24s" repeatCount="indefinite"/></path><animate attributeName="opacity" values="0;0;1;1;0" keyTimes="0;0.1333;0.1417;0.958;1" dur="24s" repeatCount="indefinite"/></g>
    <g opacity="0"><path d="M73.54 13.54l3-3" stroke="black" stroke-width="3"/><path d="M73.54 13.54l3-3" stroke="#8b5cf6" stroke-width="2.5"><animateTransform attributeName="transform" type="rotate" values="45 73.54 13.54;45 73.54 13.54;0 73.54 13.54;0 73.54 13.54" keyTimes="0;0.1833;0.1917;1" dur="24s" repeatCount="indefinite"/><animate attributeName="stroke" values="#8b5cf6;#8b5cf6;#e9d5ff;#8b5cf6" keyTimes="0;0.1912;0.1917;0.1958" dur="24s" repeatCount="indefinite"/></path><animate attributeName="opacity" values="0;0;1;1;0" keyTimes="0;0.175;0.1833;0.958;1" dur="24s" repeatCount="indefinite"/></g>
    <g opacity="0"><path d="M87.54 13.54l3-3" stroke="black" stroke-width="3"/><path d="M87.54 13.54l3-3" stroke="#8b5cf6" stroke-width="2.5"><animateTransform attributeName="transform" type="rotate" values="45 87.54 13.54;45 87.54 13.54;0 87.54 13.54;0 87.54 13.54" keyTimes="0;0.225;0.2333;1" dur="24s" repeatCount="indefinite"/><animate attributeName="stroke" values="#8b5cf6;#8b5cf6;#e9d5ff;#8b5cf6" keyTimes="0;0.2328;0.2333;0.2375" dur="24s" repeatCount="indefinite"/></path><animate attributeName="opacity" values="0;0;1;1;0" keyTimes="0;0.2167;0.225;0.958;1" dur="24s" repeatCount="indefinite"/></g>
    <g opacity="0"><path d="M101.54 13.54l3-3" stroke="black" stroke-width="3"/><path d="M101.54 13.54l3-3" stroke="#8b5cf6" stroke-width="2.5"><animateTransform attributeName="transform" type="rotate" values="45 101.54 13.54;45 101.54 13.54;0 101.54 13.54;0 101.54 13.54" keyTimes="0;0.2667;0.275;1" dur="24s" repeatCount="indefinite"/><animate attributeName="stroke" values="#8b5cf6;#8b5cf6;#e9d5ff;#8b5cf6" keyTimes="0;0.2745;0.275;0.2792" dur="24s" repeatCount="indefinite"/></path><animate attributeName="opacity" values="0;0;1;1;0" keyTimes="0;0.2583;0.2667;0.958;1" dur="24s" repeatCount="indefinite"/></g>
    <g opacity="0"><path d="M115.54 13.54l3-3" stroke="black" stroke-width="3"/><path d="M115.54 13.54l3-3" stroke="#8b5cf6" stroke-width="2.5"><animateTransform attributeName="transform" type="rotate" values="45 115.54 13.54;45 115.54 13.54;0 115.54 13.54;0 115.54 13.54" keyTimes="0;0.3083;0.3167;1" dur="24s" repeatCount="indefinite"/><animate attributeName="stroke" values="#8b5cf6;#8b5cf6;#e9d5ff;#8b5cf6" keyTimes="0;0.3162;0.3167;0.3208" dur="24s" repeatCount="indefinite"/></path><animate attributeName="opacity" values="0;0;1;1;0" keyTimes="0;0.3;0.3083;0.958;1" dur="24s" repeatCount="indefinite"/></g>
    <g opacity="0"><path d="M129.54 13.54l3-3" stroke="black" stroke-width="3"/><path d="M129.54 13.54l3-3" stroke="#8b5cf6" stroke-width="2.5"><animateTransform attributeName="transform" type="rotate" values="45 129.54 13.54;45 129.54 13.54;0 129.54 13.54;0 129.54 13.54" keyTimes="0;0.35;0.3583;1" dur="24s" repeatCount="indefinite"/><animate attributeName="stroke" values="#8b5cf6;#8b5cf6;#e9d5ff;#8b5cf6" keyTimes="0;0.3578;0.3583;0.3625" dur="24s" repeatCount="indefinite"/></path><animate attributeName="opacity" values="0;0;1;1;0" keyTimes="0;0.3417;0.35;0.958;1" dur="24s" repeatCount="indefinite"/></g>
    <g opacity="0"><path d="M143.54 13.54l3-3" stroke="black" stroke-width="3"/><path d="M143.54 13.54l3-3" stroke="#8b5cf6" stroke-width="2.5"><animateTransform attributeName="transform" type="rotate" values="45 143.54 13.54;45 143.54 13.54;0 143.54 13.54;0 143.54 13.54" keyTimes="0;0.3917;0.4;1" dur="24s" repeatCount="indefinite"/><animate attributeName="stroke" values="#8b5cf6;#8b5cf6;#e9d5ff;#8b5cf6" keyTimes="0;0.3995;0.4;0.4042" dur="24s" repeatCount="indefinite"/></path><animate attributeName="opacity" values="0;0;1;1;0" keyTimes="0;0.3833;0.3917;0.958;1" dur="24s" repeatCount="indefinite"/></g>
    <g opacity="0"><path d="M157.54 13.54l3-3" stroke="black" stroke-width="3"/><path d="M157.54 13.54l3-3" stroke="#8b5cf6" stroke-width="2.5"><animateTransform attributeName="transform" type="rotate" values="45 157.54 13.54;45 157.54 13.54;0 157.54 13.54;0 157.54 13.54" keyTimes="0;0.4333;0.4417;1" dur="24s" repeatCount="indefinite"/><animate attributeName="stroke" values="#8b5cf6;#8b5cf6;#e9d5ff;#8b5cf6" keyTimes="0;0.4412;0.4417;0.4458" dur="24s" repeatCount="indefinite"/></path><animate attributeName="opacity" values="0;0;1;1;0" keyTimes="0;0.425;0.4333;0.958;1" dur="24s" repeatCount="indefinite"/></g>
    <g opacity="0"><path d="M171.54 13.54l3-3" stroke="black" stroke-width="3"/><path d="M171.54 13.54l3-3" stroke="#8b5cf6" stroke-width="2.5"><animateTransform attributeName="transform" type="rotate" values="45 171.54 13.54;45 171.54 13.54;0 171.54 13.54;0 171.54 13.54" keyTimes="0;0.475;0.4833;1" dur="24s" repeatCount="indefinite"/><animate attributeName="stroke" values="#8b5cf6;#8b5cf6;#e9d5ff;#8b5cf6" keyTimes="0;0.4828;0.4833;0.4875" dur="24s" repeatCount="indefinite"/></path><animate attributeName="opacity" values="0;0;1;1;0" keyTimes="0;0.4667;0.475;0.958;1" dur="24s" repeatCount="indefinite"/></g>
    <g opacity="0"><path d="M185.54 13.54l3-3" stroke="black" stroke-width="3"/><path d="M185.54 13.54l3-3" stroke="#8b5cf6" stroke-width="2.5"><animateTransform attributeName="transform" type="rotate" values="45 185.54 13.54;45 185.54 13.54;0 185.54 13.54;0 185.54 13.54" keyTimes="0;0.5167;0.525;1" dur="24s" repeatCount="indefinite"/><animate attributeName="stroke" values="#8b5cf6;#8b5cf6;#e9d5ff;#8b5cf6" keyTimes="0;0.5245;0.525;0.5292" dur="24s" repeatCount="indefinite"/></path><animate attributeName="opacity" values="0;0;1;1;0" keyTimes="0;0.5083;0.5167;0.958;1" dur="24s" repeatCount="indefinite"/></g>
    <g opacity="0"><path d="M199.54 13.54l3-3" stroke="black" stroke-width="3"/><path d="M199.54 13.54l3-3" stroke="#8b5cf6" stroke-width="2.5"><animateTransform attributeName="transform" type="rotate" values="45 199.54 13.54;45 199.54 13.54;0 199.54 13.54;0 199.54 13.54" keyTimes="0;0.5583;0.5667;1" dur="24s" repeatCount="indefinite"/><animate attributeName="stroke" values="#8b5cf6;#8b5cf6;#e9d5ff;#8b5cf6" keyTimes="0;0.5662;0.5667;0.5708" dur="24s" repeatCount="indefinite"/></path><animate attributeName="opacity" values="0;0;1;1;0" keyTimes="0;0.55;0.5583;0.958;1" dur="24s" repeatCount="indefinite"/></g>
    <g opacity="0"><path d="M213.54 13.54l3-3" stroke="black" stroke-width="3"/><path d="M213.54 13.54l3-3" stroke="#8b5cf6" stroke-width="2.5"><animateTransform attributeName="transform" type="rotate" values="45 213.54 13.54;45 213.54 13.54;0 213.54 13.54;0 213.54 13.54" keyTimes="0;0.6;0.6083;1" dur="24s" repeatCount="indefinite"/><animate attributeName="stroke" values="#8b5cf6;#8b5cf6;#e9d5ff;#8b5cf6" keyTimes="0;0.6078;0.6083;0.6125" dur="24s" repeatCount="indefinite"/></path><animate attributeName="opacity" values="0;0;1;1;0" keyTimes="0;0.5917;0.6;0.958;1" dur="24s" repeatCount="indefinite"/></g>
    <g opacity="0"><path d="M227.54 13.54l3-3" stroke="black" stroke-width="3"/><path d="M227.54 13.54l3-3" stroke="#8b5cf6" stroke-width="2.5"><animateTransform attributeName="transform" type="rotate" values="45 227.54 13.54;45 227.54 13.54;0 227.54 13.54;0 227.54 13.54" keyTimes="0;0.6417;0.65;1" dur="24s" repeatCount="indefinite"/><animate attributeName="stroke" values="#8b5cf6;#8b5cf6;#e9d5ff;#8b5cf6" keyTimes="0;0.6495;0.65;0.6542" dur="24s" repeatCount="indefinite"/></path><animate attributeName="opacity" values="0;0;1;1;0" keyTimes="0;0.6333;0.6417;0.958;1" dur="24s" repeatCount="indefinite"/></g>
    <g opacity="0"><path d="M241.54 13.54l3-3" stroke="black" stroke-width="3"/><path d="M241.54 13.54l3-3" stroke="#8b5cf6" stroke-width="2.5"><animateTransform attributeName="transform" type="rotate" values="45 241.54 13.54;45 241.54 13.54;0 241.54 13.54;0 241.54 13.54" keyTimes="0;0.6833;0.6917;1" dur="24s" repeatCount="indefinite"/><animate attributeName="stroke" values="#8b5cf6;#8b5cf6;#e9d5ff;#8b5cf6" keyTimes="0;0.6912;0.6917;0.6958" dur="24s" repeatCount="indefinite"/></path><animate attributeName="opacity" values="0;0;1;1;0" keyTimes="0;0.675;0.6833;0.958;1" dur="24s" repeatCount="indefinite"/></g>
    <g opacity="0"><path d="M255.54 13.54l3-3" stroke="black" stroke-width="3"/><path d="M255.54 13.54l3-3" stroke="#8b5cf6" stroke-width="2.5"><animateTransform attributeName="transform" type="rotate" values="45 255.54 13.54;45 255.54 13.54;0 255.54 13.54;0 255.54 13.54" keyTimes="0;0.725;0.7333;1" dur="24s" repeatCount="indefinite"/><animate attributeName="stroke" values="#8b5cf6;#8b5cf6;#e9d5ff;#8b5cf6" keyTimes="0;0.7328;0.7333;0.7375" dur="24s" repeatCount="indefinite"/></path><animate attributeName="opacity" values="0;0;1;1;0" keyTimes="0;0.7167;0.725;0.958;1" dur="24s" repeatCount="indefinite"/></g>
    <g opacity="0"><path d="M269.54 13.54l3-3" stroke="black" stroke-width="3"/><path d="M269.54 13.54l3-3" stroke="#8b5cf6" stroke-width="2.5"><animateTransform attributeName="transform" type="rotate" values="45 269.54 13.54;45 269.54 13.54;0 269.54 13.54;0 269.54 13.54" keyTimes="0;0.7667;0.775;1" dur="24s" repeatCount="indefinite"/><animate attributeName="stroke" values="#8b5cf6;#8b5cf6;#e9d5ff;#8b5cf6" keyTimes="0;0.7745;0.775;0.7792" dur="24s" repeatCount="indefinite"/></path><animate attributeName="opacity" values="0;0;1;1;0" keyTimes="0;0.7583;0.7667;0.958;1" dur="24s" repeatCount="indefinite"/></g>
    <g opacity="0"><path d="M283.54 13.54l3-3" stroke="black" stroke-width="3"/><path d="M283.54 13.54l3-3" stroke="#8b5cf6" stroke-width="2.5"><animateTransform attributeName="transform" type="rotate" values="45 283.54 13.54;45 283.54 13.54;0 283.54 13.54;0 283.54 13.54" keyTimes="0;0.8083;0.8167;1" dur="24s" repeatCount="indefinite"/><animate attributeName="stroke" values="#8b5cf6;#8b5cf6;#e9d5ff;#8b5cf6" keyTimes="0;0.8162;0.8167;0.8208" dur="24s" repeatCount="indefinite"/></path><animate attributeName="opacity" values="0;0;1;1;0" keyTimes="0;0.8;0.8083;0.958;1" dur="24s" repeatCount="indefinite"/></g>

    <!-- ============ LAYER 3: CLICK EFFECTS — expanding ring + spark burst ============ -->
    <!-- Link 0 click @ 0.025 -->
    <circle cx="19" cy="12" r="0.5" fill="none" stroke="#c4b5fd" stroke-width="0.4" opacity="0"><animate attributeName="r" values="0.5;0.5;5;5" keyTimes="0;0.025;0.037;1" dur="24s" repeatCount="indefinite"/><animate attributeName="opacity" values="0;0;0.9;0;0" keyTimes="0;0.025;0.027;0.037;1" dur="24s" repeatCount="indefinite"/></circle>
    <g opacity="0"><line x1="19" y1="12" x2="19" y2="9" stroke="#e9d5ff" stroke-width="0.5"/><line x1="19" y1="12" x2="22" y2="12" stroke="#e9d5ff" stroke-width="0.5"/><line x1="19" y1="12" x2="19" y2="15" stroke="#e9d5ff" stroke-width="0.5"/><line x1="19" y1="12" x2="16" y2="12" stroke="#e9d5ff" stroke-width="0.5"/><line x1="19" y1="12" x2="21.1" y2="9.9" stroke="#e9d5ff" stroke-width="0.5"/><line x1="19" y1="12" x2="21.1" y2="14.1" stroke="#e9d5ff" stroke-width="0.5"/><line x1="19" y1="12" x2="16.9" y2="14.1" stroke="#e9d5ff" stroke-width="0.5"/><line x1="19" y1="12" x2="16.9" y2="9.9" stroke="#e9d5ff" stroke-width="0.5"/><animate attributeName="opacity" values="0;0;1;0;0" keyTimes="0;0.025;0.027;0.037;1" dur="24s" repeatCount="indefinite"/></g>

    <!-- Link 1 click @ 0.0667 -->
    <circle cx="33" cy="12" r="0.5" fill="none" stroke="#c4b5fd" stroke-width="0.4" opacity="0"><animate attributeName="r" values="0.5;0.5;5;5" keyTimes="0;0.0667;0.0787;1" dur="24s" repeatCount="indefinite"/><animate attributeName="opacity" values="0;0;0.9;0;0" keyTimes="0;0.0667;0.0687;0.0787;1" dur="24s" repeatCount="indefinite"/></circle>
    <g opacity="0"><line x1="33" y1="12" x2="33" y2="9" stroke="#e9d5ff" stroke-width="0.5"/><line x1="33" y1="12" x2="36" y2="12" stroke="#e9d5ff" stroke-width="0.5"/><line x1="33" y1="12" x2="33" y2="15" stroke="#e9d5ff" stroke-width="0.5"/><line x1="33" y1="12" x2="30" y2="12" stroke="#e9d5ff" stroke-width="0.5"/><line x1="33" y1="12" x2="35.1" y2="9.9" stroke="#e9d5ff" stroke-width="0.5"/><line x1="33" y1="12" x2="35.1" y2="14.1" stroke="#e9d5ff" stroke-width="0.5"/><line x1="33" y1="12" x2="30.9" y2="14.1" stroke="#e9d5ff" stroke-width="0.5"/><line x1="33" y1="12" x2="30.9" y2="9.9" stroke="#e9d5ff" stroke-width="0.5"/><animate attributeName="opacity" values="0;0;1;0;0" keyTimes="0;0.0667;0.0687;0.0787;1" dur="24s" repeatCount="indefinite"/></g>

    <!-- Link 2 click @ 0.1083 -->
    <circle cx="47" cy="12" r="0.5" fill="none" stroke="#c4b5fd" stroke-width="0.4" opacity="0"><animate attributeName="r" values="0.5;0.5;5;5" keyTimes="0;0.1083;0.1203;1" dur="24s" repeatCount="indefinite"/><animate attributeName="opacity" values="0;0;0.9;0;0" keyTimes="0;0.1083;0.1103;0.1203;1" dur="24s" repeatCount="indefinite"/></circle>
    <g opacity="0"><line x1="47" y1="12" x2="47" y2="9" stroke="#e9d5ff" stroke-width="0.5"/><line x1="47" y1="12" x2="50" y2="12" stroke="#e9d5ff" stroke-width="0.5"/><line x1="47" y1="12" x2="47" y2="15" stroke="#e9d5ff" stroke-width="0.5"/><line x1="47" y1="12" x2="44" y2="12" stroke="#e9d5ff" stroke-width="0.5"/><line x1="47" y1="12" x2="49.1" y2="9.9" stroke="#e9d5ff" stroke-width="0.5"/><line x1="47" y1="12" x2="49.1" y2="14.1" stroke="#e9d5ff" stroke-width="0.5"/><line x1="47" y1="12" x2="44.9" y2="14.1" stroke="#e9d5ff" stroke-width="0.5"/><line x1="47" y1="12" x2="44.9" y2="9.9" stroke="#e9d5ff" stroke-width="0.5"/><animate attributeName="opacity" values="0;0;1;0;0" keyTimes="0;0.1083;0.1103;0.1203;1" dur="24s" repeatCount="indefinite"/></g>

    <!-- Link 3 click @ 0.15 -->
    <circle cx="61" cy="12" r="0.5" fill="none" stroke="#c4b5fd" stroke-width="0.4" opacity="0"><animate attributeName="r" values="0.5;0.5;5;5" keyTimes="0;0.15;0.162;1" dur="24s" repeatCount="indefinite"/><animate attributeName="opacity" values="0;0;0.9;0;0" keyTimes="0;0.15;0.152;0.162;1" dur="24s" repeatCount="indefinite"/></circle>
    <g opacity="0"><line x1="61" y1="12" x2="61" y2="9" stroke="#e9d5ff" stroke-width="0.5"/><line x1="61" y1="12" x2="64" y2="12" stroke="#e9d5ff" stroke-width="0.5"/><line x1="61" y1="12" x2="61" y2="15" stroke="#e9d5ff" stroke-width="0.5"/><line x1="61" y1="12" x2="58" y2="12" stroke="#e9d5ff" stroke-width="0.5"/><line x1="61" y1="12" x2="63.1" y2="9.9" stroke="#e9d5ff" stroke-width="0.5"/><line x1="61" y1="12" x2="63.1" y2="14.1" stroke="#e9d5ff" stroke-width="0.5"/><line x1="61" y1="12" x2="58.9" y2="14.1" stroke="#e9d5ff" stroke-width="0.5"/><line x1="61" y1="12" x2="58.9" y2="9.9" stroke="#e9d5ff" stroke-width="0.5"/><animate attributeName="opacity" values="0;0;1;0;0" keyTimes="0;0.15;0.152;0.162;1" dur="24s" repeatCount="indefinite"/></g>

    <!-- Link 4 click @ 0.1917 -->
    <circle cx="75" cy="12" r="0.5" fill="none" stroke="#c4b5fd" stroke-width="0.4" opacity="0"><animate attributeName="r" values="0.5;0.5;5;5" keyTimes="0;0.1917;0.2037;1" dur="24s" repeatCount="indefinite"/><animate attributeName="opacity" values="0;0;0.9;0;0" keyTimes="0;0.1917;0.1937;0.2037;1" dur="24s" repeatCount="indefinite"/></circle>
    <g opacity="0"><line x1="75" y1="12" x2="75" y2="9" stroke="#e9d5ff" stroke-width="0.5"/><line x1="75" y1="12" x2="78" y2="12" stroke="#e9d5ff" stroke-width="0.5"/><line x1="75" y1="12" x2="75" y2="15" stroke="#e9d5ff" stroke-width="0.5"/><line x1="75" y1="12" x2="72" y2="12" stroke="#e9d5ff" stroke-width="0.5"/><line x1="75" y1="12" x2="77.1" y2="9.9" stroke="#e9d5ff" stroke-width="0.5"/><line x1="75" y1="12" x2="77.1" y2="14.1" stroke="#e9d5ff" stroke-width="0.5"/><line x1="75" y1="12" x2="72.9" y2="14.1" stroke="#e9d5ff" stroke-width="0.5"/><line x1="75" y1="12" x2="72.9" y2="9.9" stroke="#e9d5ff" stroke-width="0.5"/><animate attributeName="opacity" values="0;0;1;0;0" keyTimes="0;0.1917;0.1937;0.2037;1" dur="24s" repeatCount="indefinite"/></g>

    <!-- Link 5 click @ 0.2333 -->
    <circle cx="89" cy="12" r="0.5" fill="none" stroke="#c4b5fd" stroke-width="0.4" opacity="0"><animate attributeName="r" values="0.5;0.5;5;5" keyTimes="0;0.2333;0.2453;1" dur="24s" repeatCount="indefinite"/><animate attributeName="opacity" values="0;0;0.9;0;0" keyTimes="0;0.2333;0.2353;0.2453;1" dur="24s" repeatCount="indefinite"/></circle>
    <g opacity="0"><line x1="89" y1="12" x2="89" y2="9" stroke="#e9d5ff" stroke-width="0.5"/><line x1="89" y1="12" x2="92" y2="12" stroke="#e9d5ff" stroke-width="0.5"/><line x1="89" y1="12" x2="89" y2="15" stroke="#e9d5ff" stroke-width="0.5"/><line x1="89" y1="12" x2="86" y2="12" stroke="#e9d5ff" stroke-width="0.5"/><line x1="89" y1="12" x2="91.1" y2="9.9" stroke="#e9d5ff" stroke-width="0.5"/><line x1="89" y1="12" x2="91.1" y2="14.1" stroke="#e9d5ff" stroke-width="0.5"/><line x1="89" y1="12" x2="86.9" y2="14.1" stroke="#e9d5ff" stroke-width="0.5"/><line x1="89" y1="12" x2="86.9" y2="9.9" stroke="#e9d5ff" stroke-width="0.5"/><animate attributeName="opacity" values="0;0;1;0;0" keyTimes="0;0.2333;0.2353;0.2453;1" dur="24s" repeatCount="indefinite"/></g>

    <!-- Link 6 click @ 0.275 -->
    <circle cx="103" cy="12" r="0.5" fill="none" stroke="#c4b5fd" stroke-width="0.4" opacity="0"><animate attributeName="r" values="0.5;0.5;5;5" keyTimes="0;0.275;0.287;1" dur="24s" repeatCount="indefinite"/><animate attributeName="opacity" values="0;0;0.9;0;0" keyTimes="0;0.275;0.277;0.287;1" dur="24s" repeatCount="indefinite"/></circle>
    <g opacity="0"><line x1="103" y1="12" x2="103" y2="9" stroke="#e9d5ff" stroke-width="0.5"/><line x1="103" y1="12" x2="106" y2="12" stroke="#e9d5ff" stroke-width="0.5"/><line x1="103" y1="12" x2="103" y2="15" stroke="#e9d5ff" stroke-width="0.5"/><line x1="103" y1="12" x2="100" y2="12" stroke="#e9d5ff" stroke-width="0.5"/><line x1="103" y1="12" x2="105.1" y2="9.9" stroke="#e9d5ff" stroke-width="0.5"/><line x1="103" y1="12" x2="105.1" y2="14.1" stroke="#e9d5ff" stroke-width="0.5"/><line x1="103" y1="12" x2="100.9" y2="14.1" stroke="#e9d5ff" stroke-width="0.5"/><line x1="103" y1="12" x2="100.9" y2="9.9" stroke="#e9d5ff" stroke-width="0.5"/><animate attributeName="opacity" values="0;0;1;0;0" keyTimes="0;0.275;0.277;0.287;1" dur="24s" repeatCount="indefinite"/></g>

    <!-- Link 7 click @ 0.3167 -->
    <circle cx="117" cy="12" r="0.5" fill="none" stroke="#c4b5fd" stroke-width="0.4" opacity="0"><animate attributeName="r" values="0.5;0.5;5;5" keyTimes="0;0.3167;0.3287;1" dur="24s" repeatCount="indefinite"/><animate attributeName="opacity" values="0;0;0.9;0;0" keyTimes="0;0.3167;0.3187;0.3287;1" dur="24s" repeatCount="indefinite"/></circle>
    <g opacity="0"><line x1="117" y1="12" x2="117" y2="9" stroke="#e9d5ff" stroke-width="0.5"/><line x1="117" y1="12" x2="120" y2="12" stroke="#e9d5ff" stroke-width="0.5"/><line x1="117" y1="12" x2="117" y2="15" stroke="#e9d5ff" stroke-width="0.5"/><line x1="117" y1="12" x2="114" y2="12" stroke="#e9d5ff" stroke-width="0.5"/><line x1="117" y1="12" x2="119.1" y2="9.9" stroke="#e9d5ff" stroke-width="0.5"/><line x1="117" y1="12" x2="119.1" y2="14.1" stroke="#e9d5ff" stroke-width="0.5"/><line x1="117" y1="12" x2="114.9" y2="14.1" stroke="#e9d5ff" stroke-width="0.5"/><line x1="117" y1="12" x2="114.9" y2="9.9" stroke="#e9d5ff" stroke-width="0.5"/><animate attributeName="opacity" values="0;0;1;0;0" keyTimes="0;0.3167;0.3187;0.3287;1" dur="24s" repeatCount="indefinite"/></g>

    <!-- Link 8 click @ 0.3583 -->
    <circle cx="131" cy="12" r="0.5" fill="none" stroke="#c4b5fd" stroke-width="0.4" opacity="0"><animate attributeName="r" values="0.5;0.5;5;5" keyTimes="0;0.3583;0.3703;1" dur="24s" repeatCount="indefinite"/><animate attributeName="opacity" values="0;0;0.9;0;0" keyTimes="0;0.3583;0.3603;0.3703;1" dur="24s" repeatCount="indefinite"/></circle>
    <g opacity="0"><line x1="131" y1="12" x2="131" y2="9" stroke="#e9d5ff" stroke-width="0.5"/><line x1="131" y1="12" x2="134" y2="12" stroke="#e9d5ff" stroke-width="0.5"/><line x1="131" y1="12" x2="131" y2="15" stroke="#e9d5ff" stroke-width="0.5"/><line x1="131" y1="12" x2="128" y2="12" stroke="#e9d5ff" stroke-width="0.5"/><line x1="131" y1="12" x2="133.1" y2="9.9" stroke="#e9d5ff" stroke-width="0.5"/><line x1="131" y1="12" x2="133.1" y2="14.1" stroke="#e9d5ff" stroke-width="0.5"/><line x1="131" y1="12" x2="128.9" y2="14.1" stroke="#e9d5ff" stroke-width="0.5"/><line x1="131" y1="12" x2="128.9" y2="9.9" stroke="#e9d5ff" stroke-width="0.5"/><animate attributeName="opacity" values="0;0;1;0;0" keyTimes="0;0.3583;0.3603;0.3703;1" dur="24s" repeatCount="indefinite"/></g>

    <!-- Link 9 click @ 0.4 -->
    <circle cx="145" cy="12" r="0.5" fill="none" stroke="#c4b5fd" stroke-width="0.4" opacity="0"><animate attributeName="r" values="0.5;0.5;5;5" keyTimes="0;0.4;0.412;1" dur="24s" repeatCount="indefinite"/><animate attributeName="opacity" values="0;0;0.9;0;0" keyTimes="0;0.4;0.402;0.412;1" dur="24s" repeatCount="indefinite"/></circle>
    <g opacity="0"><line x1="145" y1="12" x2="145" y2="9" stroke="#e9d5ff" stroke-width="0.5"/><line x1="145" y1="12" x2="148" y2="12" stroke="#e9d5ff" stroke-width="0.5"/><line x1="145" y1="12" x2="145" y2="15" stroke="#e9d5ff" stroke-width="0.5"/><line x1="145" y1="12" x2="142" y2="12" stroke="#e9d5ff" stroke-width="0.5"/><line x1="145" y1="12" x2="147.1" y2="9.9" stroke="#e9d5ff" stroke-width="0.5"/><line x1="145" y1="12" x2="147.1" y2="14.1" stroke="#e9d5ff" stroke-width="0.5"/><line x1="145" y1="12" x2="142.9" y2="14.1" stroke="#e9d5ff" stroke-width="0.5"/><line x1="145" y1="12" x2="142.9" y2="9.9" stroke="#e9d5ff" stroke-width="0.5"/><animate attributeName="opacity" values="0;0;1;0;0" keyTimes="0;0.4;0.402;0.412;1" dur="24s" repeatCount="indefinite"/></g>

    <!-- Link 10 click @ 0.4417 -->
    <circle cx="159" cy="12" r="0.5" fill="none" stroke="#c4b5fd" stroke-width="0.4" opacity="0"><animate attributeName="r" values="0.5;0.5;5;5" keyTimes="0;0.4417;0.4537;1" dur="24s" repeatCount="indefinite"/><animate attributeName="opacity" values="0;0;0.9;0;0" keyTimes="0;0.4417;0.4437;0.4537;1" dur="24s" repeatCount="indefinite"/></circle>
    <g opacity="0"><line x1="159" y1="12" x2="159" y2="9" stroke="#e9d5ff" stroke-width="0.5"/><line x1="159" y1="12" x2="162" y2="12" stroke="#e9d5ff" stroke-width="0.5"/><line x1="159" y1="12" x2="159" y2="15" stroke="#e9d5ff" stroke-width="0.5"/><line x1="159" y1="12" x2="156" y2="12" stroke="#e9d5ff" stroke-width="0.5"/><line x1="159" y1="12" x2="161.1" y2="9.9" stroke="#e9d5ff" stroke-width="0.5"/><line x1="159" y1="12" x2="161.1" y2="14.1" stroke="#e9d5ff" stroke-width="0.5"/><line x1="159" y1="12" x2="156.9" y2="14.1" stroke="#e9d5ff" stroke-width="0.5"/><line x1="159" y1="12" x2="156.9" y2="9.9" stroke="#e9d5ff" stroke-width="0.5"/><animate attributeName="opacity" values="0;0;1;0;0" keyTimes="0;0.4417;0.4437;0.4537;1" dur="24s" repeatCount="indefinite"/></g>

    <!-- Link 11 click @ 0.4833 -->
    <circle cx="173" cy="12" r="0.5" fill="none" stroke="#c4b5fd" stroke-width="0.4" opacity="0"><animate attributeName="r" values="0.5;0.5;5;5" keyTimes="0;0.4833;0.4953;1" dur="24s" repeatCount="indefinite"/><animate attributeName="opacity" values="0;0;0.9;0;0" keyTimes="0;0.4833;0.4853;0.4953;1" dur="24s" repeatCount="indefinite"/></circle>
    <g opacity="0"><line x1="173" y1="12" x2="173" y2="9" stroke="#e9d5ff" stroke-width="0.5"/><line x1="173" y1="12" x2="176" y2="12" stroke="#e9d5ff" stroke-width="0.5"/><line x1="173" y1="12" x2="173" y2="15" stroke="#e9d5ff" stroke-width="0.5"/><line x1="173" y1="12" x2="170" y2="12" stroke="#e9d5ff" stroke-width="0.5"/><line x1="173" y1="12" x2="175.1" y2="9.9" stroke="#e9d5ff" stroke-width="0.5"/><line x1="173" y1="12" x2="175.1" y2="14.1" stroke="#e9d5ff" stroke-width="0.5"/><line x1="173" y1="12" x2="170.9" y2="14.1" stroke="#e9d5ff" stroke-width="0.5"/><line x1="173" y1="12" x2="170.9" y2="9.9" stroke="#e9d5ff" stroke-width="0.5"/><animate attributeName="opacity" values="0;0;1;0;0" keyTimes="0;0.4833;0.4853;0.4953;1" dur="24s" repeatCount="indefinite"/></g>

    <!-- Link 12 click @ 0.525 -->
    <circle cx="187" cy="12" r="0.5" fill="none" stroke="#c4b5fd" stroke-width="0.4" opacity="0"><animate attributeName="r" values="0.5;0.5;5;5" keyTimes="0;0.525;0.537;1" dur="24s" repeatCount="indefinite"/><animate attributeName="opacity" values="0;0;0.9;0;0" keyTimes="0;0.525;0.527;0.537;1" dur="24s" repeatCount="indefinite"/></circle>
    <g opacity="0"><line x1="187" y1="12" x2="187" y2="9" stroke="#e9d5ff" stroke-width="0.5"/><line x1="187" y1="12" x2="190" y2="12" stroke="#e9d5ff" stroke-width="0.5"/><line x1="187" y1="12" x2="187" y2="15" stroke="#e9d5ff" stroke-width="0.5"/><line x1="187" y1="12" x2="184" y2="12" stroke="#e9d5ff" stroke-width="0.5"/><line x1="187" y1="12" x2="189.1" y2="9.9" stroke="#e9d5ff" stroke-width="0.5"/><line x1="187" y1="12" x2="189.1" y2="14.1" stroke="#e9d5ff" stroke-width="0.5"/><line x1="187" y1="12" x2="184.9" y2="14.1" stroke="#e9d5ff" stroke-width="0.5"/><line x1="187" y1="12" x2="184.9" y2="9.9" stroke="#e9d5ff" stroke-width="0.5"/><animate attributeName="opacity" values="0;0;1;0;0" keyTimes="0;0.525;0.527;0.537;1" dur="24s" repeatCount="indefinite"/></g>

    <!-- Link 13 click @ 0.5667 -->
    <circle cx="201" cy="12" r="0.5" fill="none" stroke="#c4b5fd" stroke-width="0.4" opacity="0"><animate attributeName="r" values="0.5;0.5;5;5" keyTimes="0;0.5667;0.5787;1" dur="24s" repeatCount="indefinite"/><animate attributeName="opacity" values="0;0;0.9;0;0" keyTimes="0;0.5667;0.5687;0.5787;1" dur="24s" repeatCount="indefinite"/></circle>
    <g opacity="0"><line x1="201" y1="12" x2="201" y2="9" stroke="#e9d5ff" stroke-width="0.5"/><line x1="201" y1="12" x2="204" y2="12" stroke="#e9d5ff" stroke-width="0.5"/><line x1="201" y1="12" x2="201" y2="15" stroke="#e9d5ff" stroke-width="0.5"/><line x1="201" y1="12" x2="198" y2="12" stroke="#e9d5ff" stroke-width="0.5"/><line x1="201" y1="12" x2="203.1" y2="9.9" stroke="#e9d5ff" stroke-width="0.5"/><line x1="201" y1="12" x2="203.1" y2="14.1" stroke="#e9d5ff" stroke-width="0.5"/><line x1="201" y1="12" x2="198.9" y2="14.1" stroke="#e9d5ff" stroke-width="0.5"/><line x1="201" y1="12" x2="198.9" y2="9.9" stroke="#e9d5ff" stroke-width="0.5"/><animate attributeName="opacity" values="0;0;1;0;0" keyTimes="0;0.5667;0.5687;0.5787;1" dur="24s" repeatCount="indefinite"/></g>

    <!-- Link 14 click @ 0.6083 -->
    <circle cx="215" cy="12" r="0.5" fill="none" stroke="#c4b5fd" stroke-width="0.4" opacity="0"><animate attributeName="r" values="0.5;0.5;5;5" keyTimes="0;0.6083;0.6203;1" dur="24s" repeatCount="indefinite"/><animate attributeName="opacity" values="0;0;0.9;0;0" keyTimes="0;0.6083;0.6103;0.6203;1" dur="24s" repeatCount="indefinite"/></circle>
    <g opacity="0"><line x1="215" y1="12" x2="215" y2="9" stroke="#e9d5ff" stroke-width="0.5"/><line x1="215" y1="12" x2="218" y2="12" stroke="#e9d5ff" stroke-width="0.5"/><line x1="215" y1="12" x2="215" y2="15" stroke="#e9d5ff" stroke-width="0.5"/><line x1="215" y1="12" x2="212" y2="12" stroke="#e9d5ff" stroke-width="0.5"/><line x1="215" y1="12" x2="217.1" y2="9.9" stroke="#e9d5ff" stroke-width="0.5"/><line x1="215" y1="12" x2="217.1" y2="14.1" stroke="#e9d5ff" stroke-width="0.5"/><line x1="215" y1="12" x2="212.9" y2="14.1" stroke="#e9d5ff" stroke-width="0.5"/><line x1="215" y1="12" x2="212.9" y2="9.9" stroke="#e9d5ff" stroke-width="0.5"/><animate attributeName="opacity" values="0;0;1;0;0" keyTimes="0;0.6083;0.6103;0.6203;1" dur="24s" repeatCount="indefinite"/></g>

    <!-- Link 15 click @ 0.65 -->
    <circle cx="229" cy="12" r="0.5" fill="none" stroke="#c4b5fd" stroke-width="0.4" opacity="0"><animate attributeName="r" values="0.5;0.5;5;5" keyTimes="0;0.65;0.662;1" dur="24s" repeatCount="indefinite"/><animate attributeName="opacity" values="0;0;0.9;0;0" keyTimes="0;0.65;0.652;0.662;1" dur="24s" repeatCount="indefinite"/></circle>
    <g opacity="0"><line x1="229" y1="12" x2="229" y2="9" stroke="#e9d5ff" stroke-width="0.5"/><line x1="229" y1="12" x2="232" y2="12" stroke="#e9d5ff" stroke-width="0.5"/><line x1="229" y1="12" x2="229" y2="15" stroke="#e9d5ff" stroke-width="0.5"/><line x1="229" y1="12" x2="226" y2="12" stroke="#e9d5ff" stroke-width="0.5"/><line x1="229" y1="12" x2="231.1" y2="9.9" stroke="#e9d5ff" stroke-width="0.5"/><line x1="229" y1="12" x2="231.1" y2="14.1" stroke="#e9d5ff" stroke-width="0.5"/><line x1="229" y1="12" x2="226.9" y2="14.1" stroke="#e9d5ff" stroke-width="0.5"/><line x1="229" y1="12" x2="226.9" y2="9.9" stroke="#e9d5ff" stroke-width="0.5"/><animate attributeName="opacity" values="0;0;1;0;0" keyTimes="0;0.65;0.652;0.662;1" dur="24s" repeatCount="indefinite"/></g>

    <!-- Link 16 click @ 0.6917 -->
    <circle cx="243" cy="12" r="0.5" fill="none" stroke="#c4b5fd" stroke-width="0.4" opacity="0"><animate attributeName="r" values="0.5;0.5;5;5" keyTimes="0;0.6917;0.7037;1" dur="24s" repeatCount="indefinite"/><animate attributeName="opacity" values="0;0;0.9;0;0" keyTimes="0;0.6917;0.6937;0.7037;1" dur="24s" repeatCount="indefinite"/></circle>
    <g opacity="0"><line x1="243" y1="12" x2="243" y2="9" stroke="#e9d5ff" stroke-width="0.5"/><line x1="243" y1="12" x2="246" y2="12" stroke="#e9d5ff" stroke-width="0.5"/><line x1="243" y1="12" x2="243" y2="15" stroke="#e9d5ff" stroke-width="0.5"/><line x1="243" y1="12" x2="240" y2="12" stroke="#e9d5ff" stroke-width="0.5"/><line x1="243" y1="12" x2="245.1" y2="9.9" stroke="#e9d5ff" stroke-width="0.5"/><line x1="243" y1="12" x2="245.1" y2="14.1" stroke="#e9d5ff" stroke-width="0.5"/><line x1="243" y1="12" x2="240.9" y2="14.1" stroke="#e9d5ff" stroke-width="0.5"/><line x1="243" y1="12" x2="240.9" y2="9.9" stroke="#e9d5ff" stroke-width="0.5"/><animate attributeName="opacity" values="0;0;1;0;0" keyTimes="0;0.6917;0.6937;0.7037;1" dur="24s" repeatCount="indefinite"/></g>

    <!-- Link 17 click @ 0.7333 -->
    <circle cx="257" cy="12" r="0.5" fill="none" stroke="#c4b5fd" stroke-width="0.4" opacity="0"><animate attributeName="r" values="0.5;0.5;5;5" keyTimes="0;0.7333;0.7453;1" dur="24s" repeatCount="indefinite"/><animate attributeName="opacity" values="0;0;0.9;0;0" keyTimes="0;0.7333;0.7353;0.7453;1" dur="24s" repeatCount="indefinite"/></circle>
    <g opacity="0"><line x1="257" y1="12" x2="257" y2="9" stroke="#e9d5ff" stroke-width="0.5"/><line x1="257" y1="12" x2="260" y2="12" stroke="#e9d5ff" stroke-width="0.5"/><line x1="257" y1="12" x2="257" y2="15" stroke="#e9d5ff" stroke-width="0.5"/><line x1="257" y1="12" x2="254" y2="12" stroke="#e9d5ff" stroke-width="0.5"/><line x1="257" y1="12" x2="259.1" y2="9.9" stroke="#e9d5ff" stroke-width="0.5"/><line x1="257" y1="12" x2="259.1" y2="14.1" stroke="#e9d5ff" stroke-width="0.5"/><line x1="257" y1="12" x2="254.9" y2="14.1" stroke="#e9d5ff" stroke-width="0.5"/><line x1="257" y1="12" x2="254.9" y2="9.9" stroke="#e9d5ff" stroke-width="0.5"/><animate attributeName="opacity" values="0;0;1;0;0" keyTimes="0;0.7333;0.7353;0.7453;1" dur="24s" repeatCount="indefinite"/></g>

    <!-- Link 18 click @ 0.775 -->
    <circle cx="271" cy="12" r="0.5" fill="none" stroke="#c4b5fd" stroke-width="0.4" opacity="0"><animate attributeName="r" values="0.5;0.5;5;5" keyTimes="0;0.775;0.787;1" dur="24s" repeatCount="indefinite"/><animate attributeName="opacity" values="0;0;0.9;0;0" keyTimes="0;0.775;0.777;0.787;1" dur="24s" repeatCount="indefinite"/></circle>
    <g opacity="0"><line x1="271" y1="12" x2="271" y2="9" stroke="#e9d5ff" stroke-width="0.5"/><line x1="271" y1="12" x2="274" y2="12" stroke="#e9d5ff" stroke-width="0.5"/><line x1="271" y1="12" x2="271" y2="15" stroke="#e9d5ff" stroke-width="0.5"/><line x1="271" y1="12" x2="268" y2="12" stroke="#e9d5ff" stroke-width="0.5"/><line x1="271" y1="12" x2="273.1" y2="9.9" stroke="#e9d5ff" stroke-width="0.5"/><line x1="271" y1="12" x2="273.1" y2="14.1" stroke="#e9d5ff" stroke-width="0.5"/><line x1="271" y1="12" x2="268.9" y2="14.1" stroke="#e9d5ff" stroke-width="0.5"/><line x1="271" y1="12" x2="268.9" y2="9.9" stroke="#e9d5ff" stroke-width="0.5"/><animate attributeName="opacity" values="0;0;1;0;0" keyTimes="0;0.775;0.777;0.787;1" dur="24s" repeatCount="indefinite"/></g>

    <!-- Link 19 click @ 0.8167 -->
    <circle cx="285" cy="12" r="0.5" fill="none" stroke="#c4b5fd" stroke-width="0.4" opacity="0"><animate attributeName="r" values="0.5;0.5;5;5" keyTimes="0;0.8167;0.8287;1" dur="24s" repeatCount="indefinite"/><animate attributeName="opacity" values="0;0;0.9;0;0" keyTimes="0;0.8167;0.8187;0.8287;1" dur="24s" repeatCount="indefinite"/></circle>
    <g opacity="0"><line x1="285" y1="12" x2="285" y2="9" stroke="#e9d5ff" stroke-width="0.5"/><line x1="285" y1="12" x2="288" y2="12" stroke="#e9d5ff" stroke-width="0.5"/><line x1="285" y1="12" x2="285" y2="15" stroke="#e9d5ff" stroke-width="0.5"/><line x1="285" y1="12" x2="282" y2="12" stroke="#e9d5ff" stroke-width="0.5"/><line x1="285" y1="12" x2="287.1" y2="9.9" stroke="#e9d5ff" stroke-width="0.5"/><line x1="285" y1="12" x2="287.1" y2="14.1" stroke="#e9d5ff" stroke-width="0.5"/><line x1="285" y1="12" x2="282.9" y2="14.1" stroke="#e9d5ff" stroke-width="0.5"/><line x1="285" y1="12" x2="282.9" y2="9.9" stroke="#e9d5ff" stroke-width="0.5"/><animate attributeName="opacity" values="0;0;1;0;0" keyTimes="0;0.8167;0.8187;0.8287;1" dur="24s" repeatCount="indefinite"/></g>

  </g>
</svg>
